<?xml version="1.0" encoding="utf-8"?>
<!-- Generator: Adobe Illustrator 23.0.2, SVG Export Plug-In . SVG Version: 6.00 Build 0)  -->
<svg version="1.1" xmlns="http://www.w3.org/2000/svg" xmlns:xlink="http://www.w3.org/1999/xlink" x="0px" y="0px"
	 viewBox="0 0 1000 1000" style="enable-background:new 0 0 1000 1000;" xml:space="preserve">
<style type="text/css">
	.st0{fill:url(#SVGID_1_);}
	.st1{fill:#4D8125;}
	.st2{fill:#4D8125;stroke:#000000;stroke-width:3;stroke-miterlimit:10;}
	.st3{fill:#35600F;}
	.st4{fill:none;stroke:#79B545;stroke-width:4;stroke-linecap:round;stroke-miterlimit:10;}
	.st5{fill:#79B545;}
	.st6{fill:#132308;stroke:#000000;stroke-width:4;stroke-miterlimit:10;}
	.st7{fill:#DFE0DE;stroke:#000000;stroke-width:3;stroke-miterlimit:10;}
	.st8{fill:#CC0D32;stroke:#000000;stroke-width:3;stroke-miterlimit:10;}
	.st9{fill:#A9CAE7;stroke:#000000;stroke-width:3;stroke-miterlimit:10;}
	.st10{fill:#E9FED3;stroke:#000000;stroke-width:4;stroke-miterlimit:10;}
	.st11{fill:none;stroke:#000000;stroke-width:4;stroke-linecap:round;stroke-miterlimit:10;}
</style>
<g id="Calque_12">
	<linearGradient id="SVGID_1_" gradientUnits="userSpaceOnUse" x1="499.5" y1="740.3427" x2="499.5" y2="157.6422">
		<stop  offset="0" style="stop-color:#FFFFFF"/>
		<stop  offset="0.5934" style="stop-color:#C0C0C0"/>
		<stop  offset="1" style="stop-color:#929292"/>
	</linearGradient>
	<rect x="-0.5" y="-0.5" class="st0" width="1000" height="1001"/>
</g>
<g id="forme_K">
	<path class="st1" d="M753,288"/>
	<path class="st1" d="M621,833"/>
	<path class="st1" d="M-52,149"/>
	<path class="st1" d="M542.06,520.72"/>
	<path class="st2" d="M604.5,129.5"/>
	<path class="st2" d="M853.22,775.95c-2.47-2.15-5.04-4.24-7.6-6.23c0,0-2.95-3.2-7.91-8.42c-16.34-17.19-54.46-56.26-80.19-74.51
		c-0.02-0.02-0.05-0.03-0.07-0.05c-26.63-23.2-68.6-45.79-110.12-62.5c-6.19-2.49-30.65-13.02-39.14-18.23
		c-10.25-6.28-31.37-27.57-35.1-32.95c-7.22-10.42-13.75-20.92-19.61-31.16c-2.96-5.17-10.09-25.92-8.96-34.01
		c0.77-5.53,2.07-11.42,3.68-16.61c1.77-5.73,15.66-24.18,20.58-29.65C645,376.93,748,293,748,293l0,0
		c12.75-6.91,41.9-30.5,48.59-37.6c30.08-31.88,56.5-68.79,70.73-91.46c0.36-0.57,0.73-1.25,1.1-1.99
		c6.59-9.92,32.66-53.92,3.57-90.94c-19.58-24.92-57.37-28.42-84.86-27.15c-11.09,0.15-22.23,1.75-32.25,3.86
		c-0.38,0.08-0.58,0.12-0.58,0.12v0c-6.92,1.48-13.3,3.19-18.72,4.81c-10.96,3.29-24,9.81-33.64,16.16
		c-3.77,2.49-9.35,7.01-16.32,13.11c-4.93,4.32-32.54,24.43-39.95,29.3c-50.71,33.4-85.69,73.44-105.99,100.92
		c-14.39,19.48-36.63,47.66-43.29,54.15c-5.98,5.83-11.39,11.04-16.08,15.49c-9.08,8.6-30.9,23.69-36.72,27.08
		c-5.48,3.2-10.6,6.11-15.31,8.73c-2.84,1.58-6.82,1.89-10.19,1.37c-1.74-0.27-3.52-2.29-4.9-4.52c-1.38-2.23-2.97-9.18-3.21-10.89
		c-4.8-34.41-10.72-66.32-18-90.57C362,113,321,72,268,63s-99,18-99,18s-43,46-40,115s4,237,11,257s-1,221-21,257s-19,207,41,231
		c0,0,22,34,87,12s79-21,132-112c20.01-34.35,32.03-85.22,39.25-135.25c0.43-2.98,5.39-5.08,7.52-3.18
		c47.47,42.48,112.16,81.46,152.49,103.97c5.53,3.09,10.6,5.86,15.1,8.29c4.43,2.39,18.13,11.09,23.21,15.43
		c5.32,4.54,10.68,9.3,12.13,10.72c6.19,6.08,14.02,12.44,20.83,17.63c6.08,4.64,11.34,8.34,13.87,10.06
		c53.66,36.39,109.03,45.71,109.03,45.71s36.6,9.15,83.49-42.32c28.74-31.54,22.25-60.5,12.92-78.2
		C865.66,787.83,859.78,781.66,853.22,775.95z"/>
	<path class="st2" d="M444.5,306.5"/>
	<path class="st2" d="M444.5,306.5"/>
</g>
<g id="boutons_intérieur">
	<path class="st3" d="M153.81,367.84c-2.84,2.14-9.81,8.2-9.81,16.16c0,10,7,14,13,16c5.73,1.91,5.08-23.55-1.1-31.94
		C155.62,367.67,154.54,367.29,153.81,367.84z"/>
	<path class="st3" d="M382.52,463.84c3.51,4.41,11.65,15.61,8.48,21.16c-4,7-9,10-14,10c-4.68,0-5.86-23.7,2.24-31.63
		C379.78,462.84,381.6,462.69,382.52,463.84z"/>
	<path class="st3" d="M159,592.23c-2.86-1.29-7.71-4.25-7-9.23c1-7,6-11,8-10c1.92,0.96,11.2,12.96,2.24,19.23
		C161.86,592.5,160.17,592.75,159,592.23z"/>
	<path class="st3" d="M188,727"/>
	<path class="st3" d="M188,727"/>
	<path class="st3" d="M350.69,745.52c4.69,3.05,13.31,10.73,7.31,23.48c-5.94,12.63-14.64,9.81-18.72,7.52
		c-1.41-0.79-2.68-2.46-3.12-4.04c-1.53-5.41-3.56-18.32,8.43-26.49C345.61,745.29,349.12,744.5,350.69,745.52z"/>
	<path class="st3" d="M133.73,758.03c-3.98,2.16-11.48,7.97-7.73,19.97c0,0,5,11,16,7c9.95-3.62,5.99-25.25-3.01-27.85
		C138.05,756.87,135.06,757.31,133.73,758.03z"/>
	<path class="st3" d="M185,728c0,0-18-11-4-22s19-3,19-3S203,728,185,728z"/>
	<path class="st3" d="M188,727"/>
</g>
<g id="boutons_contour">
	<path class="st4" d="M142,787c0,0-9,1-16-7c-5.12-5.85-1.15-13.3,1.36-16.89c0.92-1.32,2.51-2.85,3.76-3.82
		c2.31-1.77,5.94-4.3,7.88-4.3"/>
	<path class="st4" d="M183.49,729.34c0,0-7.78-4.63-8.54-15.23c-0.56-7.75,7.11-11.3,11.27-12.65c1.53-0.5,3.72-0.76,5.3-0.78
		c2.91-0.02,7.33,0.15,8.88,1.33"/>
	<path class="st4" d="M346.76,746c0,0,8.88,1.76,13.15,11.49c3.12,7.12-2.91,13.03-6.38,15.69c-1.27,0.98-3.25,1.97-4.74,2.51
		c-2.74,1-6.96,2.31-8.81,1.72"/>
	<path class="st4" d="M156,572c0,0-7.6,5.07-4.95,13.66c0.23,0.75,1.19,3.07,2.27,4.16c1.11,1.13,3.12,2.66,6.68,4.19"/>
	<path class="st4" d="M156,365c0,0-16,11-12,24s14,12,14,12"/>
	<path class="st4" d="M384,463c0,0,11,12,7,24s-15,8-15,8"/>
	<path class="st3" d="M346.36,188.16c3.13-0.18,8.8,0.18,10.49,4.92c2.36,6.66-0.21,12.53-2.44,12.57
		c-2.14,0.04-15.93-6.28-10.92-15.99C343.7,189.25,345.09,188.24,346.36,188.16z"/>
	<path class="st4" d="M358.41,204.68c0,0,4.38-8.02-1.96-14.39c-0.56-0.56-2.48-2.16-3.94-2.63c-1.51-0.49-4-0.91-7.86-0.6"/>
	<path class="st3" d="M344.22,311.23c0,0,19.99-6.74,19.44,11.05c-0.55,17.8-9.89,16.5-9.89,16.5S332.67,325.04,344.22,311.23z"/>
	<path class="st4" d="M344.16,309.22c0,0,8.55-3,17.16,3.23c6.3,4.55,4.11,12.7,2.47,16.76c-0.6,1.49-1.8,3.34-2.81,4.56
		c-1.85,2.25-4.82,5.52-6.72,5.96"/>
	<path class="st3" d="M504.42,541.23c5.48-1.1,17.02-1.65,21.66,11.66c4.59,13.18-3.6,17.25-8.11,18.48
		c-1.56,0.42-3.64,0.12-5.06-0.7c-4.88-2.8-15.36-10.59-12.51-24.82C500.64,544.62,502.6,541.6,504.42,541.23z"/>
	<path class="st4" d="M501.95,544.33c0,0,7.58-4.96,17.44-0.99c7.21,2.9,7.04,11.35,6.42,15.68c-0.23,1.59-0.95,3.68-1.63,5.1
		c-1.26,2.63-3.35,6.52-5.09,7.4"/>
	<path class="st3" d="M240.05,555.4c3.5-2.87,9.76-10,3.8-21.07c0,0-7-9.85-17.04-3.84c-9.09,5.44-1.08,25.93,8.24,26.78
		C236.03,557.36,238.88,556.36,240.05,555.4z"/>
	<path class="st4" d="M226.43,528.53c0,0,8.65-2.69,17.04,3.84c6.14,4.77,3.65,12.84,1.87,16.84c-0.65,1.47-1.92,3.28-2.97,4.46
		c-1.93,2.18-5.01,5.35-6.92,5.72"/>
	<path class="st3" d="M470.82,354.62c-0.91-3-1.89-8.6,2.33-11.35c5.92-3.86,12.23-2.73,12.79-0.57
		c0.54,2.08-2.37,16.96-12.99,14.36C472.5,356.95,471.19,355.84,470.82,354.62z"/>
	<path class="st4" d="M484.05,339.04c0,0-8.82-2.38-13.53,5.27c-0.41,0.67-1.52,2.92-1.64,4.44c-0.12,1.58,0.06,4.1,1.26,7.79"/>
	<path class="st3" d="M588.25,376.91c0.67,3.07,1.2,8.72-3.21,11.13c-6.21,3.38-12.41,1.76-12.8-0.44
		c-0.38-2.11,3.7-16.72,14.08-13.29C586.76,374.45,587.98,375.66,588.25,376.91z"/>
	<path class="st4" d="M573.83,391.4c0,0,8.61,3.07,13.91-4.19c0.47-0.64,1.75-2.79,1.98-4.3c0.24-1.57,0.27-4.09-0.64-7.86"/>
	<path class="st3" d="M670.58,127.82c-2.03-5.21-4.55-16.48,7.75-23.34c12.19-6.79,17.61,0.57,19.6,4.81
		c0.69,1.47,0.74,3.56,0.18,5.1c-1.91,5.29-7.79,16.96-22.29,16.6C674.58,130.96,671.26,129.55,670.58,127.82z"/>
	<path class="st4" d="M674.06,129.72c0,0-6.19-6.61-3.98-17.01c1.62-7.6,9.97-8.89,14.34-9.03c1.61-0.05,3.79,0.3,5.31,0.73
		c2.8,0.79,7,2.18,8.16,3.74"/>
	<path class="st3" d="M713.51,701.19c-0.09-3.56-0.96-12.75-7.43-17.38c-8.13-5.82-15.46-2.46-20.58,1.26
		c-4.89,3.55,16.2,17.84,26.61,17.7C712.6,702.76,713.54,702.1,713.51,701.19z"/>
	<path class="st4" d="M714.55,704.62c0,0,0.37-19.41-12.53-23.73c-12.9-4.32-17.91,4.4-17.91,4.4"/>
	<path class="st3" d="M389.26,631.22c-2.13,2.31-6.46,5.98-10.96,3.74c-6.33-3.16-8.55-9.16-6.97-10.74
		c1.51-1.52,15.83-6.54,18.96,3.93C390.43,628.6,390.13,630.29,389.26,631.22z"/>
	<path class="st4" d="M369.12,627.7c0,0,2.41,8.82,11.4,9c0.79,0.02,3.29-0.16,4.66-0.84c1.42-0.7,3.51-2.13,6.08-5.03"/>
	<path class="st3" d="M523.59,721.61c-1.54,4.26-3.28,13.59,7.5,20.06c0,0,11.05,4.89,16.61-5.41c5.03-9.32-12.32-22.84-20.76-18.81
		C526.04,717.87,524.1,720.19,523.59,721.61z"/>
	<path class="st4" d="M549.02,737.75c0,0-6.06,6.73-16.61,5.41c-7.71-0.97-9.7-9.17-10.21-13.52c-0.19-1.6-0.02-3.8,0.27-5.35
		c0.55-2.86,1.58-7.16,3.03-8.45"/>
	<path class="st3" d="M736.48,843.98c-1.2,2.9-3.99,7.85-8.99,7.3c-7.03-0.77-11.19-5.63-10.26-7.67
		c0.9-1.95,12.58-11.62,19.15-2.88C736.66,841.11,736.96,842.8,736.48,843.98z"/>
	<path class="st4" d="M716.36,847.64c0,0,5.32,7.43,13.81,4.5c0.75-0.26,3.03-1.29,4.08-2.4c1.09-1.15,2.55-3.21,3.96-6.82"/>
	<path class="st3" d="M250.29,900.89c-0.84,3.03-3.02,8.27-8.05,8.32c-7.07,0.08-11.78-4.26-11.1-6.39
		c0.66-2.04,11.11-13.04,18.67-5.14C250.13,898.02,250.63,899.66,250.29,900.89z"/>
	<path class="st4" d="M230.76,906.93c0,0,6.17,6.75,14.25,2.82c0.71-0.35,2.85-1.64,3.77-2.87c0.95-1.27,2.15-3.49,3.12-7.24"/>
	<path class="st3" d="M821.03,145.17c2.18,2.26,5.59,6.81,3.08,11.16c-3.52,6.13-9.65,7.99-11.14,6.32
		c-1.43-1.6-5.59-16.19,5.05-18.69C818.48,143.85,820.15,144.25,821.03,145.17z"/>
	<path class="st4" d="M816.32,165.06c0,0,8.94-1.89,9.66-10.85c0.06-0.79,0.03-3.29-0.56-4.7c-0.61-1.46-1.91-3.63-4.66-6.37"/>
</g>
<g id="réflection_lumière">
	<path class="st5" d="M776.6,787.93C748.72,770.9,710,729,710,729s-64-74-176-124c-105.77-47.22-125.03-95.32-126.84-100.53
		c2.49-1.45,5.09-2.94,7.84-4.47c39.39-22.03,85.91-66.35,112.48-93.37c13.23-13.46,26.37-30.8,35.43-43.76
		c16.3-23.32,46.24-62.16,86.08-96.86c62-54,132-70,140-106s3-35-27-51c-17.95-9.58-47.01,10.58-67.45,28.3
		c-13.71,11.89-46.55,30.63-57.33,39.96C604.88,205.25,579,257,579,257s-89,149-158.43,144.02c-34.45-2.47-73.99,7.11-105.1,17.39
		c4.26-25.07,4.83-46.25,4.75-57.26c-0.04-5.21,0.87-14.38,1.36-17.38c9.9-60.78,4.23-88.24-0.09-99.28
		c-1.87-4.78-2.73-12.25-2.44-15.05c8.52-81.13-30.55-113.46-53.43-125.28c-9.08-4.69-23.46-0.87-27.02,1.96
		c-53.47,42.38-55.1,110.62-53.58,136.49c0.39,6.56-0.86,16.6-1.63,19.56C168.88,317.38,186,339,186,339c40,80,40,139,40,139
		c0.41,4.92,0.48,13.54,0.43,22c-0.08,12.17-3.19,39.23-4.29,45.95c-3.9,23.75-5.61,40.23-6.29,51.37
		c-0.94,15.52,1.33,34.83,1.68,41.68c3.36,65.98-7.66,117.76-14.5,142.7c-2.89,10.54-5.1,26.06-5.01,30.47
		c1.7,77.27,29.34,59.16,44.39,43.4c5.69-5.96,10.33-16.7,11.65-25.1C259.21,797.65,273.06,714.48,285,689
		c7.5-16,11.5-33.5,13.62-47s-1.84-37.33-3.43-44.7c-0.8-3.7-1.15-16.59-0.37-19.69c0.27-1.09,0.57-2.21,0.9-3.32
		c0.38-1.29,6.13-7.55,9.4-8.99c1.17-0.52,2.41-0.99,3.72-1.41c1.82-0.58,10,0.74,12.73,2.58c4.16,2.8,8.63,6.2,9.91,7.51
		C368.13,611.48,415,621,415,621s114,36,157,101c32.99,49.87,103.65,87.38,134.76,102.14c9.44,4.48,26.45,8.49,31.44,8.99
		c49.97,4.95,59.85-10.83,60.12-23.58C798.48,801.7,783.71,792.27,776.6,787.93z"/>
	<path class="st3" d="M664.68,316.7c4.49,0.57,13.98,0.22,17.93-11.71c0,0,2.35-11.85-8.91-15.02c-10.2-2.86-19.59,17.02-13.8,24.38
		C660.5,315.13,663.18,316.51,664.68,316.7z"/>
	<path class="st4" d="M674.86,288.35c0,0,7.89,4.44,8.91,15.02c0.75,7.74-6.83,11.48-10.95,12.93c-1.52,0.53-3.7,0.86-5.28,0.91
		c-2.91,0.09-7.33,0.03-8.91-1.11"/>
</g>
<g id="bouche_sourcil">
	<path class="st6" d="M236,290c0,0-44-17-55-7s-12,31,6,42s18,20,53,19c0,0,25,8,46-1s48-20,46-43s-22-26-35-26
		c-9.06,0-22.97,2.43-31.93,5.59c-3.9,1.38-10.58,6.46-14.28,8.28C246.73,289.86,241.23,291.57,236,290z"/>
	<path class="st7" d="M194,281c0,0-2,7,4,8s8-7,8-7S198,279,194,281z"/>
	<path class="st7" d="M207.5,284.5c0,0-3,8,3,12s12-9,12-9S212.5,281.5,207.5,284.5z"/>
	<path class="st7" d="M222.5,287.5c0,0-3,15,4,17s11.1-14.04,11.1-14.04S224.5,286.5,222.5,287.5"/>
	<path class="st7" d="M237.6,291.84c0,0-1.1,12.66,6.9,11.66s5-13,5-13S241.7,289.18,237.6,291.84z"/>
	<path class="st7" d="M251.5,290.5c0,0,3,9,10,7s1-15,1-15S251.5,286.5,251.5,290.5z"/>
	<path class="st7" d="M263.5,282.5c0,0,5,10,12,6s1.89-12.21,1.89-12.21S263.5,280.5,263.5,282.5z"/>
	<path class="st7" d="M282.5,277.5c0,0,4,5,9,3s0.68-6.02,0.68-6.02S282.5,275.5,282.5,277.5z"/>
	<path class="st7" d="M198.5,331.5c0,0,8-4,12,2s0,6,0,6S197.5,334.5,198.5,331.5z"/>
	<path class="st7" d="M213.5,339.5c0,0,1-8,7-8s5,11,5,11S214.5,343.5,213.5,339.5z"/>
	<path class="st7" d="M227.5,341.5c0,0,1-9,6-10s9,11,9,11S232.5,345.5,227.5,341.5z"/>
	<path class="st7" d="M243.5,343.5c0,0,1-10,6-12s10,14,10,14S246.5,347.5,243.5,343.5z"/>
	<path class="st7" d="M260.5,344.5c0,0-2-9,6-12s9,13,9,13S262.5,348.5,260.5,344.5z"/>
	<path class="st7" d="M276.5,343.5c0,0-2-12,5-15s12,10,12,10S281.5,346.5,276.5,343.5z"/>
	<path class="st7" d="M293.5,337.5c0,0-4-9,2-11s8,8,8,8S297.5,339.5,293.5,337.5z"/>
	<path class="st8" d="M317.5,324.5c0,0-9-22-24-23s-27,2-31,8c-2.81,4.22,7.74,5.47,14.24,5.84c2.74,0.16,6.35,0.49,8.7,1.37
		c5.02,1.89,13.49,6.3,17.36,15.41C302.81,332.13,315.5,332.5,317.5,324.5z"/>
	<path class="st9" d="M191,145c0,0,30-24,56-22s44,18,44,18s12.78,5.44,8.89-9.28c-1.5-5.7-9.46-11.13-19.24-15.31
		c-2.96-1.27-12.45-4.23-15.03-4.69c-6.74-1.21-16.76-2.51-20.75-2.27c-7.61,0.45-15.58,1.61-20.36,2.61
		c-11.85,2.46-27.85,7.75-35.51,18.95C176,150,191,145,191,145z"/>
</g>
<g id="yeux">
	<path class="st2" d="M205.78,172.44"/>
	<path class="st10" d="M188.5,178.5c0,0-24,18-11,45s41,23,41,23s31-7,28-42c-2.03-23.7-15.07-29.06-23.28-30.05
		c-3.91-0.47-9.54-0.51-13.47-0.79C203.19,173.19,193.5,173.5,188.5,178.5z"/>
	<path class="st10" d="M252.96,228.68c0,0,19.45,22.84,45.59,8.2c26.15-14.64,20.43-42.34,20.43-42.34s-8.9-30.51-43.65-25.36
		c-23.53,3.49-28.08,16.83-28.56,25.09c-0.23,3.93,0.08,9.55,0.04,13.5C246.76,214.35,247.67,224,252.96,228.68z"/>
	<g>
		<g>
			<path d="M208.78,202.25c-1.08,0.91-2.8,2.49-2.04,4.08c0.69,1.43,2.9,1.74,4.27,1.77c-0.48-0.63-0.96-1.27-1.45-1.9
				c-0.25,0.63-2.14,5.92-3,5.81c0.43,0.25,0.86,0.5,1.3,0.74c0.36,0.74,0.1,0.74,0.81,0.28c0.32-0.21,0.69-0.77,0.91-1.11
				c0.51-0.79,0.9-1.7,0.98-2.65c0.11-1.34-0.33-2.39-1.67-2.82c-0.72-0.23-1.71,0.27-1.85,1.05c-0.76,4.42,6.07,3.68,8.61,2.97
				c0.74-0.21,1.32-1.07,1.05-1.85c-0.76-2.17-3.21-2.27-5.19-2.79c0.22,0.84,0.44,1.67,0.66,2.51c1.36-1.36,4.96-3.94,3.61-6.22
				c-1.24-2.1-4.27-1.4-5.61,0.1c-1.07,1.19,0.37,3.42,1.82,2.36c0.53-0.39,0.84-0.66,1.14-1.25c0.35-0.69,0.21-1.66-0.54-2.05
				c-2.14-1.11-4.71-0.52-6.06,1.57c-1.09,1.68-0.95,4.62,1.29,5.29c1.76,0.53,3.65-1.09,2.78-2.92c-1.11-2.33-5.19-0.86-6.77,0.02
				c-1.08,0.6-0.85,1.94,0,2.59c2.4,1.83,6.67,1.37,8.51,3.77c0.3-0.73,0.6-1.47,0.9-2.2c-0.36,0.08-0.73,0.17-1.09,0.25
				c0.5,0.5,1,1,1.5,1.5c-0.26-2.2,0.01-4.29,0.33-6.47c0.15-1.01,0.58-2.32,0.21-3.31c-0.73-1.95-3.1-1.41-4.52-0.61
				c0.73,0.56,1.47,1.13,2.2,1.69c0.65-1.87-0.72-4.9-3.06-3.39c-0.84,0.54-1.21,1.68-1.01,2.64c0.11,0.49,0.57,0.91,0.71,1.35
				c0.36,1.19-0.06,1-0.51,2.03c-0.52,1.2,0.33,2.49,1.69,2.2c0.8-0.17,1.5-0.43,2.24-0.76c1.76-0.78,0.24-3.36-1.51-2.59
				c-0.49,0.22-1,0.37-1.52,0.45c0.56,0.73,1.13,1.47,1.69,2.2c0.41-0.95,1.35-1.47,1.46-2.58c0.05-0.47-0.1-1.08-0.28-1.5
				c-0.25-0.59-2.05-2.98-2.78-0.86c-0.44,1.28,1.12,2.3,2.2,1.69c0.04-0.34,0.08-0.69,0.12-1.03c-0.09,0.69-0.2,1.37-0.3,2.06
				c-0.09,0.62-0.19,1.25-0.27,1.87c-0.21,1.65-0.28,3.25-0.08,4.9c0.09,0.79,0.61,1.52,1.5,1.5c0.87-0.02,1.08-0.03,1.89-0.36
				c0.78-0.32,1.55-1.35,0.9-2.2c-2.53-3.31-6.51-2.51-9.59-4.85c0,0.86,0,1.73,0,2.59c1.26-0.7,2.34-0.84,3.74-0.67
				c-0.43-0.25-0.86-0.5-1.3-0.74c0.45-1.85,1.55-2.7,3.29-2.55c-0.18-0.68-0.36-1.37-0.54-2.05c-0.02,0.06-0.04,0.12-0.07,0.17
				c0.61,0.79,1.21,1.57,1.82,2.36c0.93-1.03-0.14-0.29-0.65,0.25c-0.52,0.55-1.06,1.09-1.59,1.63c-0.79,0.79-0.43,2.22,0.66,2.51
				c0.31,0.08,3.09,0.69,3.1,0.69c0.35-0.62,0.7-1.23,1.05-1.85c-0.96,0.27-1.92,0.49-2.93,0.45c-0.91-0.03-1.82-0.66-1.98,0.27
				c-0.62,0.35-1.23,0.7-1.85,1.05c-0.72-0.23-1.42,1.33-2.09,2c-0.5,0.49-0.9,0.73-1.02,1.46c-0.18,1.04,0.4,1.91,1.39,2.17
				c3.42,0.9,5.23-5.83,6.09-7.99c0.38-0.94-0.57-1.88-1.45-1.9c-0.72,0.07-1.35-0.13-1.91-0.59c0.13,0.49,0.26,0.97,0.39,1.46
				c0.35-0.64,0.82-1.18,1.42-1.6C212.38,203.12,210.25,201.01,208.78,202.25L208.78,202.25z"/>
		</g>
	</g>
	<g>
		<g>
			<path d="M282.87,202.16c1.08,0.2,2.25,0.29,3.14-0.47c0.93-0.79,1.04-2.11,0.39-3.11c-1.65-2.54-4.64-0.72-5.26,1.56
				c-0.21,0.79,0.27,1.62,1.05,1.85c1.49,0.42,2.92,0.05,3.98-1.09c0.96-1.02,0.2-2.41-1.06-2.56c-2.15-0.25-4.33-0.12-6.43,0.45
				c-1.45,0.4-3.75,1-4.31,2.6c-1.39,4.02,6.23,4.18,8.34,4.03c0.82-0.06,1.49-0.64,1.5-1.5c0.03-2.3-0.83-4.33-2.55-5.87
				c-0.82-0.74-2.21-0.48-2.51,0.66c-0.79,2.99-0.84,5.96-0.2,8.97c0.4,1.9,3.25,1.08,2.89-0.8c-0.36-1.89-0.69-3.78-0.99-5.68
				c-0.08-0.5-0.16-1-0.23-1.5c-0.05-0.35,0.14-0.52,0.56-0.52c-0.31-0.4-0.39-0.31-0.25,0.26c-0.01,0.3,0.01,0.61,0.05,0.91
				c0.23,2.48,1.89,5.02,4.68,4.65c1.26-0.16,2.3-2.12,0.76-2.8c-1.96-0.86-3.75-1.97-5.27-3.48c-1.33-1.32-2.18-2.54-4.14-2.79
				c-0.76-0.1-1.56,0.77-1.5,1.5c0.11,1.28,0.63,1.97,1.84,2.41c1.82,0.66,2.6-2.24,0.8-2.89c-0.14-0.05-0.28-0.1-0.42-0.15
				c0.3,0.23,0.6,0.46,0.9,0.69c-0.04-0.02-0.07-0.04-0.11-0.05c-0.5,0.5-1,1-1.5,1.5c0.6,0.08,1.19,1.06,1.59,1.47
				c0.61,0.64,1.26,1.23,1.95,1.78c1.34,1.07,2.78,1.92,4.35,2.61c0.25-0.93,0.5-1.86,0.76-2.8c-2.32,0.3-1.4-3.47-2.25-4.79
				c-0.89-1.38-2.51-1.25-3.84-0.6c-1.51,0.74-2.06,1.92-1.89,3.56c0.25,2.51,0.81,5.03,1.27,7.5c0.96-0.27,1.93-0.53,2.89-0.8
				c-0.53-2.49-0.45-4.92,0.2-7.38c-0.84,0.22-1.67,0.44-2.51,0.66c1.14,1.03,1.69,2.19,1.67,3.75c0.5-0.5,1-1,1.5-1.5
				c-1.24,0.09-5.03,0.44-5.66-0.97c0.05,0.39,0.1,0.77,0.15,1.16c0.09-0.64,2.97-1.12,3.59-1.23c1.43-0.25,2.87-0.21,4.31-0.05
				c-0.35-0.85-0.71-1.71-1.06-2.56c-0.27,0.41-0.62,0.51-1.06,0.32c0.35,0.62,0.7,1.23,1.05,1.85c0.63-1.17,0.51-1.73-0.37-1.68
				C281.78,198.92,280.97,201.81,282.87,202.16L282.87,202.16z"/>
		</g>
	</g>
</g>
<g id="cernes_rides_nez">
	<path class="st11" d="M243,240c0,0-9,19,1,32s20-20,20-20"/>
	<path class="st11" d="M175.95,242.62c0,0,11.32,21.18,35.53,13.56"/>
	<path class="st11" d="M317.79,234.38c0,0-10.64,27.55-41.04,18.28"/>
	<path class="st11" d="M313,264c0,0,34,13,29,43s-30,37-30,37"/>
	<path class="st11" d="M203,271c0,0-33-8-40,23s33,50,33,50s17,8,30,7"/>
</g>
</svg>
